<mxfile host="65bd71144e">
    <diagram id="jnso0dNVSY7pyaFy8HCA" name="ページ1">
        <mxGraphModel dx="619" dy="353" grid="1" gridSize="10" guides="1" tooltips="1" connect="1" arrows="1" fold="1" page="1" pageScale="1" pageWidth="827" pageHeight="1169" math="0" shadow="0">
            <root>
                <mxCell id="0"/>
                <mxCell id="1" parent="0"/>
                <mxCell id="7" value="" style="rounded=0;whiteSpace=wrap;html=1;fillColor=#E6E6E6;strokeColor=#000000;" vertex="1" parent="1">
                    <mxGeometry x="30" y="70" width="160" height="60" as="geometry"/>
                </mxCell>
                <mxCell id="2" value="" style="ellipse;whiteSpace=wrap;html=1;fillColor=#009ACD;strokeColor=#000000;" vertex="1" parent="1">
                    <mxGeometry x="40" y="80" width="40" height="40" as="geometry"/>
                </mxCell>
                <mxCell id="3" value="" style="ellipse;whiteSpace=wrap;html=1;fillColor=#FFD700;strokeColor=#000000;" vertex="1" parent="1">
                    <mxGeometry x="90" y="80" width="40" height="40" as="geometry"/>
                </mxCell>
                <mxCell id="4" value="" style="ellipse;whiteSpace=wrap;html=1;fillColor=#FF4500;strokeColor=#000000;" vertex="1" parent="1">
                    <mxGeometry x="140" y="80" width="40" height="40" as="geometry"/>
                </mxCell>
            </root>
        </mxGraphModel>
    </diagram>
</mxfile>